<?xml version="1.0" encoding="utf-8"?>
<!-- Generator: Adobe Illustrator 25.1.0, SVG Export Plug-In . SVG Version: 6.00 Build 0)  -->
<svg version="1.1" id="Layer_1" xmlns="http://www.w3.org/2000/svg" xmlns:xlink="http://www.w3.org/1999/xlink" x="0px" y="0px"
	 viewBox="0 0 576 288" style="enable-background:new 0 0 576 288;" xml:space="preserve">
<style type="text/css">
	.st0{fill:#21B6C5;}
	.st1{fill:url(#SVGID_1_);}
	.st2{fill:url(#SVGID_2_);}
	.st3{clip-path:url(#SVGID_4_);}
	.st4{fill:#FFFFFF;}
</style>
<g>
	<rect x="0" class="st0" width="576" height="288"/>
	
		<linearGradient id="SVGID_1_" gradientUnits="userSpaceOnUse" x1="-1223.5997" y1="-412.1375" x2="-1223.5997" y2="-604.2675" gradientTransform="matrix(0.7071 -0.7071 0.7071 0.7071 1309.7896 -421.628)">
		<stop  offset="0" style="stop-color:#21B6C5"/>
		<stop  offset="1" style="stop-color:#11EA9E"/>
	</linearGradient>
	<circle class="st1" cx="100.83" cy="99.83" r="78"/>
	
		<linearGradient id="SVGID_2_" gradientUnits="userSpaceOnUse" x1="1880.1147" y1="-2974.491" x2="1880.1147" y2="-3166.6208" gradientTransform="matrix(-0.7071 0.7071 -0.7071 -0.7071 -346.7839 -3290.3115)">
		<stop  offset="0" style="stop-color:#21B6C5"/>
		<stop  offset="1" style="stop-color:#11EA9E"/>
	</linearGradient>
	<circle class="st2" cx="479.38" cy="194.71" r="78"/>
	<g>
		<defs>
			<rect id="SVGID_3_" x="0" width="576" height="288"/>
		</defs>
		<clipPath id="SVGID_4_">
			<use xlink:href="#SVGID_3_"  style="overflow:visible;"/>
		</clipPath>
		<g class="st3">
			<g>
				<path class="st4" d="M122.83,83.66c-0.9,0-1.79-0.34-2.47-1.03c-1.37-1.37-1.37-3.58,0-4.95l90.33-90.33
					c1.37-1.37,3.58-1.37,4.95,0s1.37,3.58,0,4.95l-90.33,90.33C124.63,83.32,123.73,83.66,122.83,83.66z"/>
			</g>
			<g>
				<path class="st4" d="M-23.5,265c-0.13,0-0.26-0.05-0.35-0.15c-0.2-0.2-0.2-0.51,0-0.71l129.33-129.33c0.2-0.2,0.51-0.2,0.71,0
					c0.2,0.2,0.2,0.51,0,0.71L-23.15,264.85C-23.24,264.95-23.37,265-23.5,265z"/>
			</g>
			<g>
				<path class="st4" d="M471.83,177.66c-0.13,0-0.26-0.05-0.35-0.15c-0.2-0.2-0.2-0.51,0-0.71l134-134c0.2-0.2,0.51-0.2,0.71,0
					c0.2,0.2,0.2,0.51,0,0.71l-134,134C472.09,177.62,471.96,177.66,471.83,177.66z"/>
			</g>
			<g>
				<path class="st4" d="M432.5,119.83c-2.56,0-5.12-0.98-7.07-2.93c-3.9-3.91-3.9-10.24,0-14.14l134-134
					c3.91-3.9,10.24-3.9,14.14,0c3.9,3.91,3.9,10.24,0,14.14l-134,134C437.62,118.85,435.06,119.83,432.5,119.83z"/>
			</g>
			<g>
				<path class="st4" d="M1.17,347.16c-2.56,0-5.12-0.98-7.07-2.93c-3.9-3.91-3.9-10.24,0-14.14l134-134c3.91-3.9,10.24-3.9,14.14,0
					c3.9,3.91,3.9,10.24,0,14.14l-134,134C6.29,346.19,3.73,347.16,1.17,347.16z"/>
			</g>
			<g>
				<path class="st4" d="M400.5,317.16c-0.26,0-0.51-0.1-0.71-0.29c-0.39-0.39-0.39-1.02,0-1.41l99.08-99.08
					c0.39-0.39,1.02-0.39,1.41,0c0.39,0.39,0.39,1.02,0,1.41l-99.08,99.08C401.01,317.07,400.76,317.16,400.5,317.16z"/>
			</g>
			<g>
				<path class="st4" d="M369.5,235.66c-0.9,0-1.79-0.34-2.48-1.03c-1.37-1.37-1.37-3.58,0-4.95l69.67-69.67
					c1.37-1.37,3.58-1.37,4.95,0c1.37,1.37,1.37,3.58,0,4.95l-69.67,69.67C371.29,235.32,370.4,235.66,369.5,235.66z"/>
			</g>
			<g>
				<path class="st4" d="M210.5,49.5c-0.13,0-0.26-0.05-0.35-0.15c-0.2-0.2-0.2-0.51,0-0.71l31.67-31.67c0.2-0.2,0.51-0.2,0.71,0
					c0.2,0.2,0.2,0.51,0,0.71l-31.67,31.67C210.76,49.45,210.63,49.5,210.5,49.5z"/>
			</g>
			<g>
				<path class="st4" d="M11.17,133c-0.13,0-0.26-0.05-0.35-0.15c-0.2-0.2-0.2-0.51,0-0.71L114.15,28.81c0.2-0.2,0.51-0.2,0.71,0
					c0.2,0.2,0.2,0.51,0,0.71L11.52,132.85C11.42,132.95,11.3,133,11.17,133z"/>
			</g>
		</g>
	</g>
</g>
</svg>
