<svg width="58" height="58" viewBox="0 0 58 58" fill="none" xmlns="http://www.w3.org/2000/svg">
<g filter="url(#filter0_d)">
<rect x="4" width="50" height="50" rx="25" fill="#09BDE3"/>
<rect x="4" width="50" height="50" rx="25" fill="url(#paint0_linear)" fill-opacity="0.5"/>
</g>
<g filter="url(#filter1_d)">
<path d="M26.1714 14C28.3386 14 30.4171 14.8609 31.9495 16.3934C33.4819 17.9258 34.3429 20.0042 34.3429 22.1714C34.3429 24.1954 33.6011 26.056 32.3817 27.4891L32.7211 27.8286H33.7143L40 34.1143L38.1143 36L31.8286 29.7143V28.7211L31.4891 28.3817C30.0064 29.6474 28.1209 30.3427 26.1714 30.3429C24.0042 30.3429 21.9258 29.4819 20.3934 27.9495C18.8609 26.4171 18 24.3386 18 22.1714C18 20.0042 18.8609 17.9258 20.3934 16.3934C21.9258 14.8609 24.0042 14 26.1714 14ZM26.1714 16.5143C23.0286 16.5143 20.5143 19.0286 20.5143 22.1714C20.5143 25.3143 23.0286 27.8286 26.1714 27.8286C29.3143 27.8286 31.8286 25.3143 31.8286 22.1714C31.8286 19.0286 29.3143 16.5143 26.1714 16.5143Z" fill="white" fill-opacity="0.9"/>
</g>
<defs>
<filter id="filter0_d" x="0" y="0" width="58" height="58" filterUnits="userSpaceOnUse" color-interpolation-filters="sRGB">
<feFlood flood-opacity="0" result="BackgroundImageFix"/>
<feColorMatrix in="SourceAlpha" type="matrix" values="0 0 0 0 0 0 0 0 0 0 0 0 0 0 0 0 0 0 127 0"/>
<feOffset dy="4"/>
<feGaussianBlur stdDeviation="2"/>
<feColorMatrix type="matrix" values="0 0 0 0 0 0 0 0 0 0 0 0 0 0 0 0 0 0 0.25 0"/>
<feBlend mode="normal" in2="BackgroundImageFix" result="effect1_dropShadow"/>
<feBlend mode="normal" in="SourceGraphic" in2="effect1_dropShadow" result="shape"/>
</filter>
<filter id="filter1_d" x="14" y="14" width="30" height="30" filterUnits="userSpaceOnUse" color-interpolation-filters="sRGB">
<feFlood flood-opacity="0" result="BackgroundImageFix"/>
<feColorMatrix in="SourceAlpha" type="matrix" values="0 0 0 0 0 0 0 0 0 0 0 0 0 0 0 0 0 0 127 0"/>
<feOffset dy="4"/>
<feGaussianBlur stdDeviation="2"/>
<feColorMatrix type="matrix" values="0 0 0 0 0 0 0 0 0 0 0 0 0 0 0 0 0 0 0.25 0"/>
<feBlend mode="normal" in2="BackgroundImageFix" result="effect1_dropShadow"/>
<feBlend mode="normal" in="SourceGraphic" in2="effect1_dropShadow" result="shape"/>
</filter>
<linearGradient id="paint0_linear" x1="29" y1="0" x2="29" y2="50" gradientUnits="userSpaceOnUse">
<stop stop-color="white"/>
<stop offset="1" stop-color="white" stop-opacity="0"/>
</linearGradient>
</defs>
</svg>
