<svg width="146" height="102" viewBox="0 0 146 102" fill="none" xmlns="http://www.w3.org/2000/svg">
<path fill-rule="evenodd" clip-rule="evenodd" d="M143.352 1.85453C143.94 2.44091 144.406 3.1375 144.725 3.90441C145.043 4.67132 145.207 5.49347 145.207 6.32379C145.207 7.1541 145.043 7.97625 144.725 8.74316C144.406 9.51007 143.94 10.2067 143.352 10.793L54.9772 99.168C54.3908 99.7559 53.6943 100.222 52.9274 100.541C52.1604 100.859 51.3383 101.023 50.508 101.023C49.6777 101.023 48.8555 100.859 48.0886 100.541C47.3217 100.222 46.6251 99.7559 46.0387 99.168L1.85122 54.9805C0.665904 53.7952 0 52.1876 0 50.5113C0 48.835 0.665904 47.2274 1.85122 46.042C3.03654 44.8567 4.64418 44.1908 6.32047 44.1908C7.99677 44.1908 9.60441 44.8567 10.7897 46.042L50.508 85.7729L134.414 1.85453C135 1.26667 135.697 0.80027 136.464 0.482039C137.231 0.163808 138.053 0 138.883 0C139.713 0 140.535 0.163808 141.302 0.482039C142.069 0.80027 142.766 1.26667 143.352 1.85453V1.85453Z" fill="#74EAB1"/>
</svg>
