<svg width="179" height="189" viewBox="0 0 179 189" fill="none" xmlns="http://www.w3.org/2000/svg">
<path d="M14.9167 189C14.9167 188.5 14.9169 188.5 14.917 188.5L14.9167 189ZM164.084 188.5H164.083H14.916L14.91 188.5L14.8824 188.5C14.8571 188.499 14.8182 188.498 14.7667 188.496C14.6637 188.493 14.5102 188.486 14.3133 188.471C13.9195 188.441 13.3534 188.381 12.6726 188.261C11.3088 188.021 9.49751 187.542 7.69177 186.589C5.88851 185.637 4.09644 184.215 2.75351 182.089C1.41174 179.963 0.5 177.105 0.5 173.25C0.5 165.495 4.18544 149.87 17.1443 136.188C30.0868 122.522 52.322 110.75 89.5 110.75C126.678 110.75 148.913 122.522 161.856 136.188C174.815 149.87 178.5 165.495 178.5 173.25C178.5 177.105 177.588 179.963 176.246 182.089C174.904 184.215 173.111 185.637 171.308 186.589C169.502 187.542 167.691 188.021 166.327 188.261C165.647 188.381 165.081 188.441 164.687 188.471C164.49 188.486 164.336 188.493 164.233 188.496C164.182 188.498 164.143 188.499 164.118 188.5L164.09 188.5L164.084 188.5ZM120.78 80.317C112.479 89.0816 101.227 94 89.5 94C77.7732 94 66.5208 89.0816 58.22 80.317C49.9183 71.5515 45.25 59.6574 45.25 47.25C45.25 34.8426 49.9183 22.9485 58.22 14.183C66.5208 5.41845 77.7732 0.5 89.5 0.5C101.227 0.5 112.479 5.41845 120.78 14.183C129.082 22.9485 133.75 34.8426 133.75 47.25C133.75 59.6574 129.082 71.5515 120.78 80.317Z" fill="#09BDE3" stroke="#74EAB1"/>
</svg>
